<?xml version="1.0" standalone="no"?>
<!DOCTYPE svg PUBLIC "-//W3C//DTD SVG 20010904//EN"
 "http://www.w3.org/TR/2001/REC-SVG-20010904/DTD/svg10.dtd">
<svg version="1.0" xmlns="http://www.w3.org/2000/svg"
 width="700.000000pt" height="700.000000pt" viewBox="0 0 700.000000 700.000000"
 preserveAspectRatio="xMidYMid meet">
<metadata>
Created by potrace 1.14, written by Peter Selinger 2001-2017
</metadata>
<g transform="translate(0.000000,700.000000) scale(0.100000,-0.100000)"
fill="#000000" stroke="none">
<path d="M3181 6990 c-718 -75 -1362 -340 -1910 -787 -146 -120 -376 -353
-498 -505 -407 -508 -659 -1097 -749 -1748 -21 -159 -30 -564 -15 -743 70
-827 435 -1606 1027 -2193 545 -540 1244 -880 2024 -986 138 -19 210 -22 445
-22 305 0 416 11 685 64 1181 235 2167 1074 2589 2202 104 278 176 589 207
888 20 198 15 608 -10 785 -120 845 -503 1583 -1111 2138 -533 487 -1180 787
-1920 893 -129 18 -633 27 -764 14z m933 -1130 c174 -26 412 -86 536 -136 116
-46 220 -102 220 -118 0 -11 -234 -598 -246 -617 -2 -4 -55 19 -117 52 -261
135 -576 200 -897 185 -358 -16 -541 -134 -540 -350 1 -100 61 -178 185 -239
89 -44 178 -71 489 -147 459 -113 658 -200 829 -360 168 -156 249 -362 250
-630 0 -261 -91 -473 -282 -652 l-80 -75 52 -56 c91 -97 154 -220 184 -360 19
-88 22 -308 4 -392 -88 -423 -399 -707 -892 -814 -451 -97 -1065 -16 -1504
199 -66 32 -134 69 -151 82 l-31 23 123 300 c68 165 127 308 131 317 7 15 14
13 63 -18 184 -118 408 -204 670 -255 151 -30 410 -33 510 -6 201 54 310 169
310 328 0 96 -42 169 -133 229 -102 69 -204 101 -652 205 -607 141 -870 330
-955 688 -41 172 -35 366 16 530 49 154 116 262 240 383 l82 82 -30 28 c-45
44 -115 145 -144 209 -57 130 -83 327 -64 480 14 119 35 193 81 293 161 351
551 577 1089 631 153 16 493 6 654 -19z"/>
<path d="M3153 3900 c-217 -125 -289 -391 -148 -548 84 -94 217 -148 573 -231
l203 -48 57 34 c124 74 204 191 217 317 19 174 -81 288 -328 375 -81 28 -481
131 -510 131 -6 0 -35 -14 -64 -30z"/>
</g>
</svg>
